<svg width="201" height="201" viewBox="0 0 201 201" fill="none" xmlns="http://www.w3.org/2000/svg">
<path fill-rule="evenodd" clip-rule="evenodd" d="M93.9471 3.53661C97.6921 -0.208312 103.764 -0.20831 107.509 3.53662L122.46 18.4881L142.609 13.0892C147.725 11.7185 152.983 14.7544 154.354 19.87L159.866 40.4428L181.284 46.1818C186.4 47.5525 189.436 52.8108 188.065 57.9265L182.535 78.5633L197.919 93.9471C201.664 97.6921 201.664 103.764 197.919 107.509L182.08 123.347L187.446 143.373C188.817 148.489 185.781 153.747 180.666 155.118L160.581 160.499L154.973 181.43C153.602 186.545 148.344 189.581 143.228 188.21L122.714 182.714L107.509 197.919C103.764 201.664 97.6921 201.664 93.9471 197.919L78.5164 182.489L57.1625 188.21C52.0468 189.581 46.7885 186.545 45.4178 181.43L39.8096 160.499L19.7248 155.118C14.6091 153.747 11.5733 148.489 12.944 143.373L18.535 122.507L3.53661 107.509C-0.208312 103.764 -0.20831 97.6921 3.53662 93.9471L18.0801 79.4037L12.3253 57.9265C10.9545 52.8108 13.9904 47.5525 19.106 46.1818L40.5241 40.4428L46.0366 19.87C47.4073 14.7544 52.6656 11.7185 57.7812 13.0892L78.7705 18.7133L93.9471 3.53661ZM91.452 61.2185C88.5219 60.153 85.5029 59.6202 82.3952 59.6202C79.3763 59.6202 76.3574 60.153 73.3385 61.2185C70.4084 62.284 67.5671 63.8822 64.8145 66.0132C62.062 68.0554 59.6646 70.8079 57.6224 74.2708C55.5802 77.7337 54.4703 81.8625 54.2927 86.6572V134.738C54.2927 137.224 55.1806 139.311 56.9565 140.998C58.8211 142.596 60.9965 143.395 63.4826 143.395C68.8101 142.951 71.6959 140.065 72.1398 134.738V87.7227C72.2286 85.5917 72.6726 83.8159 73.4717 82.3952C74.2708 80.8858 75.1587 79.7315 76.1354 78.9324C77.1121 78.0445 78.0889 77.4229 79.0656 77.0677C80.1311 76.6238 81.1966 76.4018 82.2621 76.4018C83.3275 76.4018 84.393 76.6238 85.4585 77.0677C86.524 77.4229 87.5451 78.0445 88.5219 78.9324C89.4986 79.7315 90.3865 80.8858 91.1856 82.3952C91.9847 83.8159 92.3843 85.5917 92.3843 87.7227V134.738C92.3843 137.224 93.2722 139.311 95.048 140.998C96.9127 142.596 99.088 143.395 101.574 143.395C106.902 142.951 109.832 140.065 110.365 134.738V87.7227C110.453 85.5917 110.897 83.8159 111.696 82.3952C112.496 80.8858 113.383 79.7315 114.36 78.9324C115.337 78.0445 116.314 77.4229 117.29 77.0677C118.356 76.6238 119.421 76.4018 120.487 76.4018C121.552 76.4018 122.618 76.6238 123.683 77.0677C124.749 77.4229 125.77 78.0445 126.747 78.9324C127.723 79.7315 128.611 80.8858 129.41 82.3952C130.209 83.8159 130.609 85.5917 130.609 87.7227V134.738C130.609 137.224 131.497 139.311 133.273 140.998C135.137 142.596 137.313 143.395 139.799 143.395C145.126 142.951 148.057 140.065 148.589 134.738V86.6572C148.589 81.8625 147.524 77.7337 145.393 74.2708C143.351 70.8079 140.953 68.0554 138.201 66.0132C135.537 63.8822 132.696 62.284 129.677 61.2185C126.747 60.153 123.728 59.6202 120.62 59.6202C117.601 59.6202 114.582 60.153 111.563 61.2185C108.633 62.284 105.792 63.8378 103.039 65.88C102.507 66.324 102.018 66.7679 101.574 67.2119C101.041 66.7679 100.553 66.324 100.109 65.88C97.3566 63.8378 94.4709 62.284 91.452 61.2185Z" fill="#00D1FF"/>
</svg>
